<svg xmlns="http://www.w3.org/2000/svg" width="1481.186" height="887.315" viewBox="0 0 1481.186 887.315">
  <metadata><?xpacket begin="﻿" id="W5M0MpCehiHzreSzNTczkc9d"?>
<x:xmpmeta xmlns:x="adobe:ns:meta/" x:xmptk="Adobe XMP Core 5.6-c138 79.159824, 2016/09/14-01:09:01        ">
   <rdf:RDF xmlns:rdf="http://www.w3.org/1999/02/22-rdf-syntax-ns#">
      <rdf:Description rdf:about=""/>
   </rdf:RDF>
</x:xmpmeta>
                                                                                                    
                                                                                                    
                                                                                                    
                                                                                                    
                                                                                                    
                                                                                                    
                                                                                                    
                                                                                                    
                                                                                                    
                                                                                                    
                                                                                                    
                                                                                                    
                                                                                                    
                                                                                                    
                                                                                                    
                                                                                                    
                                                                                                    
                                                                                                    
                                                                                                    
                                                                                                    
                           
<?xpacket end="w"?></metadata>
<defs>
    <style>
      .cls-1 {
        fill-rule: evenodd;
      }
    </style>
  </defs>
  <path id="slept" class="cls-1" d="M311.439,1196.94c15.972,15.09,45.254,39.93,102.93,39.93,66.55,0,127.776-42.59,127.776-102.04,0-57.68-51.465-77.2-106.48-98.49-52.352-20.41-81.634-40.82-81.634-78.975,0-33.719,32.831-77.2,102.043-77.2,39.042,0,66.549,15.085,79.859,25.733,3.55,2.662,6.212.887,7.986-1.775l2.662-4.437c1.775-2.662,1.775-5.324-.887-7.1-14.2-11.536-43.479-28.395-89.62-28.395-78.085,0-118.9,53.24-118.9,93.17,0,46.145,31.943,71.875,91.395,94.055,54.127,20.41,96.718,39.93,96.718,83.41,0,51.47-50.577,86.07-110.916,86.07-49.69,0-77.2-22.18-90.507-36.38q-3.993-3.99-7.986,0l-5.324,6.21C308.777,1193.39,309.664,1195.17,311.439,1196.94Zm328.309,24.85c-0.888,3.55,1.774,6.21,5.324,6.21h3.549c3.549,0,6.211-2.66,7.1-6.21L740.9,613.081a4.835,4.835,0,0,0-4.437-6.211H732.03c-2.662,0-5.324,2.662-6.212,6.211Zm156.165-139.31c0,84.29,44.366,154.39,136.648,154.39,48.8,0,104.709-26.62,120.679-42.59,1.77-1.77,2.66-3.55,1.77-5.32l-2.66-5.33c-0.89-1.77-2.66-4.43-7.1-.88-20.41,15.97-63,38.15-112.689,38.15-78.085,0-121.564-59.45-120.676-139.31a217.68,217.68,0,0,1,1.774-23.96c34.606,5.33,66.55,7.99,96.719,7.99,120.672,0.89,196.992-38.16,196.992-103.819,0-53.239-49.7-97.606-125.118-97.606C875.772,864.2,795.913,960.914,795.913,1082.48Zm19.521-39.93c14.2-92.284,78.972-162.383,166.818-162.383,67.438,0,109.138,42.592,109.138,81.634,0.89,54.129-69.21,88.729-181.9,87.849C881.1,1049.65,849.152,1046.98,815.434,1042.55Zm385.986,150.84c14.19,17.75,45.25,43.48,101.15,43.48,108.26,0,192.55-94.94,192.55-216.51,0-87.841-51.46-156.165-132.21-156.165-59.45,0-102.04,29.282-122.45,47.916l4.43-32.831c0.89-3.55-1.77-6.212-5.32-6.212h-3.55c-2.66,0-4.44,2.662-5.32,6.212l-86.07,608.71a4.83,4.83,0,0,0,4.43,6.21h3.55c3.55,0,6.21-2.66,7.1-6.21Zm2.66-23.95,32.83-233.371c6.21-7.986,51.46-55.9,126-55.9,70.1,0,116.24,62.113,116.24,140.193,0,113.58-76.31,200.54-176.58,200.54C1235.13,1220.9,1207.63,1175.65,1204.08,1169.44Zm401.07-36.38c-7.99,58.56-13.31,103.81,56.79,103.81,39.04,0,86.07-23.07,97.6-31.05,2.66-1.78,3.55-3.55,2.66-6.21l-3.55-6.22c-1.77-2.66-3.54-3.55-7.09-.88-11.54,7.98-53.24,28.39-89.62,28.39-52.36,0-48.81-38.15-41.71-87.84l33.72-244.02H1783.5c2.66,0,5.32-2.662,6.21-6.211l0.89-3.549c0.89-3.55-1.78-6.212-5.33-6.212H1656.61l13.31-95.831c0.89-3.549-1.77-6.211-5.32-6.211h-3.55c-2.66,0-5.33,2.662-6.21,6.211l-13.31,95.831h-33.72c-2.66,0-4.44,2.662-5.33,6.212l-0.88,3.549c-0.89,3.549.88,6.211,3.55,6.211h34.6Z" transform="translate(-309.594 -606.875)"/>
</svg>
